<svg version="1.2" xmlns="http://www.w3.org/2000/svg" viewBox="0 0 1652 320" width="1652" height="320">
	<style>
		.s0 { fill: #316761 } 
		.s1 { fill: #3e7e76 } 
		.s2 { fill: #49938a } 
		.s3 { fill: #438980 } 
		.s4 { fill: #38726b } 
		.s5 { fill: #244f4a } 
		.s6 { fill: #2b5b55 } 
		.s7 { fill: #163430 } 
		.s8 { fill: #1d423d } 
		.s9 { fill: #071514 } 
		.s10 { fill: #0e2523 } 
		.s11 { fill: none } 
		.s12 { fill: #285157 } 
		.s13 { fill: #1a383c } 
		.s14 { fill: #152f32 } 
		.s15 { fill: #0f2629 } 
		.s16 { fill: #0d1c1e } 
		.s17 { fill: #051113 } 
		.s18 { fill: #02090a } 
		.s19 { fill: #1c403c } 
		.s20 { fill: #1f4145 } 
		.s21 { fill: #040e10 } 
		.s22 { fill: #0a1819 } 
		.s23 { fill: #0f2224 } 
		.s24 { fill: #122b2f } 
		.s25 { fill: #183538 } 
		.s26 { fill: #1d3d42 } 
		.s27 { fill: #25504b } 
		.s28 { fill: #2d605a } 
		.s29 { fill: #356e67 } 
		.s30 { fill: #3d7c75 } 
		.s31 { fill: #448a82 } 
		.s32 { fill: #4b978e } 
		.s33 { fill: #489188 } 
		.s34 { fill: #41837b } 
		.s35 { fill: #39756e } 
		.s36 { fill: #295853 } 
		.s37 { fill: #214844 } 
		.s38 { fill: #22464b } 
		.s39 { fill: #23494e } 
		.s40 { fill: #264e53 } 
		.s41 { fill: #ffffff } 
		.s42 { fill: #000000 } 
	</style>
	<g id="Layer 1">
		<g>
			<g>
				<g>
					<path class="s0" d="m154.25 281.18q-0.56-0.08-1.11-0.16-0.3-0.49-0.57-1-0.32-0.56-0.62-1.14-0.35-0.68-0.68-1.36-0.41-0.85-0.76-1.73-0.5-1.17-0.92-2.42-0.7-1.97-1.18-4.05-0.73-3.02-1.02-6.21c-0.61-7.02 0.52-13.79 3.03-19.89 1.49-3.61 3.45-6.97 5.83-10.02 2.05-2.64 4.42-5.03 7.04-7.12 2.4-1.94 5.04-3.62 7.85-5 2.65-1.31 5.47-2.35 8.41-3.07q3.23-0.82 6.63-1.12 1.01-0.08 1.99-0.13 4.39-0.17 8.58 0.52 2.19 3.76 3.56 7.79-1-0.14-2.01-0.23-3.42-0.3-6.71-0.05l-0.01-0.01c-3.02 0.22-5.98 0.75-8.81 1.57q-4.52 1.32-8.61 3.56c-2.93 1.61-5.67 3.55-8.14 5.78-2.88 2.6-5.42 5.58-7.5 8.9-3.54 5.56-5.82 12.03-6.44 19.04q-0.28 3.2-0.09 6.3 0.13 2.12 0.47 4.17 0.2 1.29 0.48 2.54 0.2 0.93 0.45 1.84 0.2 0.73 0.43 1.46 0.24 0.63 0.43 1.24z"/>
					<path class="s1" d="m152.11 280.84q-0.47-0.09-0.92-0.18-0.4-0.28-0.78-0.6-0.41-0.31-0.79-0.64-0.45-0.35-0.88-0.75l-0.01 0.01q-0.49-0.42-0.96-0.86-0.55-0.5-1.09-1.04-0.66-0.66-1.32-1.37-0.87-0.95-1.69-1.96l0.01-0.01q-1.34-1.62-2.5-3.41-1.72-2.57-3.06-5.47c-2.98-6.37-4.22-13.1-3.96-19.68 0.16-3.91 0.85-7.76 2.05-11.45 1.02-3.19 2.43-6.25 4.17-9.11q2.42-3.99 5.68-7.37 3.05-3.22 6.84-5.77 2.75-1.87 5.85-3.31 0.93-0.43 1.86-0.81c2.68-1.11 5.43-1.91 8.2-2.44q4.22-0.81 8.44-0.74l0.01 0.01q4.27 0.05 8.38 0.93 2.38 1.78 4.55 3.95 0.84 0.84 1.61 1.71-4.14-0.8-8.43-0.73-4.24 0.04-8.53 0.97-0.96 0.21-1.96 0.48-3.3 0.88-6.32 2.25-4.18 1.85-7.76 4.49c-2.53 1.84-4.84 3.96-6.87 6.28-2.21 2.51-4.12 5.27-5.68 8.23-1.83 3.41-3.18 7.09-4.01 10.91l0.01 0.01c-1.43 6.44-1.36 13.3 0.46 20.09q0.83 3.08 2.07 5.93 0.85 1.96 1.87 3.79 0.63 1.13 1.33 2.21 0.5 0.8 1.06 1.58 0.43 0.63 0.89 1.23 0.39 0.52 0.8 1.02 0.35 0.45 0.73 0.88 0.3 0.34 0.65 0.74z"/>
					<path class="s2" d="m150.29 280.46q-0.91-0.2-1.82-0.47-0.44-0.12-0.86-0.24-0.47-0.14-0.93-0.29-0.49-0.17-0.97-0.33-0.55-0.19-1.06-0.39-0.6-0.22-1.19-0.48-0.71-0.29-1.4-0.62-0.86-0.39-1.71-0.84-1.16-0.57-2.25-1.25-1.81-1.07-3.51-2.35-2.5-1.85-4.75-4.1c-4.97-4.97-8.46-10.88-10.46-17.17-1.19-3.72-1.85-7.58-1.99-11.45q-0.19-5.04 0.8-9.98c0.61-3.03 1.54-6.02 2.81-8.87q1.79-4.08 4.47-7.76 1.94-2.69 4.36-5.11 0.72-0.72 1.46-1.39c2.15-1.95 4.47-3.66 6.89-5.1q3.68-2.2 7.67-3.58 4-1.4 8.17-1.98 4.21-0.59 8.42-0.34c5.53 0.31 11.03 1.69 16.11 4.16q-4.08-0.99-8.3-1.13c-2.8-0.12-5.65 0.06-8.46 0.52-2.77 0.45-5.51 1.17-8.17 2.2q-3.98 1.49-7.69 3.83-0.86 0.53-1.68 1.11-2.8 1.97-5.18 4.28c-2.19 2.1-4.11 4.41-5.74 6.86-1.75 2.6-3.2 5.38-4.32 8.27-1.23 3.11-2.07 6.36-2.53 9.66-0.53 3.84-0.56 7.75-0.03 11.63 0.87 6.54 3.28 12.96 7.31 18.73q1.83 2.61 3.97 4.86 1.46 1.55 3.05 2.92 0.98 0.86 2 1.64 0.75 0.58 1.53 1.11l0.01 0.01q0.61 0.44 1.26 0.84 0.53 0.35 1.1 0.67 0.46 0.31 0.98 0.58 0.45 0.27 0.91 0.51 0.43 0.24 0.87 0.45 0.42 0.18 0.85 0.38z"/>
					<path class="s3" d="m151.19 280.66q-0.46-0.1-0.9-0.2-0.43-0.2-0.84-0.41-0.44-0.21-0.87-0.45-0.46-0.24-0.91-0.51-0.51-0.27-0.98-0.58-0.57-0.31-1.1-0.67-0.65-0.41-1.26-0.84l-0.01-0.01q-0.78-0.53-1.53-1.11-1.02-0.78-2-1.64-1.6-1.37-3.05-2.92-2.14-2.24-3.97-4.86c-4.03-5.77-6.44-12.19-7.31-18.73-0.53-3.87-0.51-7.79 0.03-11.63q0.69-4.96 2.53-9.66c1.12-2.89 2.56-5.67 4.32-8.27 1.64-2.45 3.56-4.76 5.74-6.86q2.39-2.31 5.18-4.28 0.83-0.58 1.68-1.11 3.7-2.34 7.69-3.83c2.66-1.03 5.4-1.74 8.17-2.2 2.81-0.46 5.66-0.63 8.46-0.52q4.22 0.14 8.3 1.13 3.7 1.77 7.07 4.3-4.11-0.88-8.38-0.93l-0.01-0.01c-2.8-0.03-5.63 0.2-8.44 0.74-2.76 0.53-5.52 1.33-8.2 2.44q-0.93 0.38-1.86 0.81-3.1 1.45-5.85 3.31c-2.51 1.69-4.81 3.62-6.84 5.77q-3.27 3.38-5.68 7.37c-1.74 2.86-3.16 5.93-4.17 9.11-1.2 3.69-1.89 7.54-2.05 11.45-0.27 6.58 0.98 13.31 3.96 19.68q1.34 2.9 3.06 5.47 1.17 1.79 2.5 3.41l-0.01 0.01q0.82 1.02 1.69 1.96 0.65 0.71 1.32 1.37 0.55 0.54 1.09 1.04 0.47 0.44 0.96 0.86l0.01-0.01q0.43 0.41 0.88 0.75 0.39 0.34 0.79 0.64 0.39 0.33 0.79 0.62z"/>
					<path class="s4" d="m153.14 281.02q-0.51-0.08-1.03-0.18l-0.01-0.01q-0.34-0.39-0.68-0.78-0.37-0.42-0.73-0.88-0.41-0.5-0.8-1.02-0.46-0.6-0.89-1.23-0.56-0.78-1.06-1.58-0.7-1.08-1.33-2.21-1.03-1.83-1.87-3.79-1.25-2.84-2.07-5.93c-1.82-6.79-1.89-13.65-0.46-20.09l-0.01-0.01c0.83-3.82 2.19-7.5 4.01-10.91 1.55-2.95 3.46-5.72 5.68-8.23 2.03-2.33 4.34-4.44 6.87-6.28q3.59-2.63 7.76-4.49 3.02-1.36 6.32-2.25 0.99-0.26 1.96-0.48c2.85-0.62 5.71-0.93 8.53-0.97 2.85-0.05 5.68 0.21 8.43 0.73q2.88 3.22 5 6.82-4.19-0.68-8.58-0.52-0.99 0.05-1.99 0.13-3.41 0.31-6.63 1.12-4.44 1.1-8.41 3.07c-2.81 1.38-5.45 3.06-7.85 5-2.62 2.09-4.98 4.48-7.04 7.12-2.39 3.05-4.35 6.42-5.83 10.02-2.51 6.1-3.64 12.87-3.03 19.89q0.28 3.19 1.02 6.21 0.48 2.09 1.18 4.05 0.42 1.25 0.92 2.42 0.35 0.87 0.76 1.73 0.32 0.68 0.68 1.36 0.29 0.58 0.62 1.14 0.26 0.54 0.56 1.03z"/>
					<path class="s5" d="m173.45 251.37c-5.22 4.02-9.58 9.31-12.55 15.69q-1.35 2.87-2.21 5.87l-0.01 0.01q-0.62 2.02-1.01 4.08-0.25 1.27-0.41 2.56-0.13 0.93-0.21 1.88-0.77-0.04-1.51-0.13-0.1-0.75-0.18-1.51-0.07-0.95-0.13-1.89-0.06-1.29-0.03-2.59 0.02-2.09 0.28-4.2 0.35-3.09 1.17-6.18c1.83-6.8 5.2-12.78 9.65-17.64 2.63-2.9 5.64-5.39 8.93-7.45 2.82-1.77 5.85-3.21 9.02-4.28 2.94-1 5.99-1.69 9.11-2.02q4.41-0.48 8.94-0.01c0.38 2.97 0.43 5.98 0.18 8.96-3.11-0.23-6.24-0.08-9.3 0.38-3.31 0.51-6.55 1.39-9.64 2.66l-0.01 0.01c-3.59 1.46-6.98 3.4-10.08 5.8z"/>
					<path class="s6" d="m155.54 281.33q-0.65-0.06-1.29-0.15-0.21-0.63-0.4-1.24-0.22-0.73-0.43-1.46-0.25-0.91-0.45-1.84-0.28-1.24-0.48-2.54-0.34-2.05-0.47-4.17-0.19-3.1 0.09-6.3c0.62-7.01 2.9-13.48 6.44-19.04 2.08-3.31 4.62-6.3 7.5-8.9 2.47-2.24 5.21-4.17 8.14-5.78q4.09-2.24 8.61-3.56 4.27-1.23 8.81-1.57l0.01 0.01q3.3-0.24 6.71 0.05 1.02 0.09 2.01 0.23 1.42 4.16 1.96 8.49-4.53-0.47-8.94 0.01c-3.12 0.33-6.18 1.02-9.11 2.02-3.17 1.07-6.2 2.51-9.02 4.28-3.29 2.05-6.3 4.55-8.93 7.45-4.45 4.87-7.82 10.84-9.65 17.64q-0.83 3.07-1.17 6.18-0.26 2.1-0.28 4.2-0.03 1.3 0.03 2.59 0.05 0.94 0.13 1.89 0.08 0.76 0.18 1.51z"/>
					<path class="s7" d="m185.16 262.81c-6.28 1.99-12.19 5.48-17.17 10.46q-2.26 2.26-4.11 4.76-1.27 1.7-2.34 3.51-1.29 0.05-2.6 0.03 0.38-1.24 0.86-2.45 0.72-1.96 1.69-3.86 1.38-2.78 3.21-5.4c4.04-5.76 9.25-10.22 15.09-13.27 3.46-1.82 7.14-3.15 10.93-3.96q4.92-1.06 9.97-0.93c-0.98 3.15-2.35 6.23-4.09 9.13-3.86 0.13-7.72 0.8-11.44 1.98z"/>
					<path class="s8" d="m179.8 256.59c-5.84 3.05-11.05 7.51-15.09 13.27q-1.85 2.62-3.21 5.4-0.96 1.89-1.69 3.86-0.48 1.21-0.86 2.45c-0.63-0.02-1.28-0.04-1.9-0.1q0.07-0.94 0.21-1.88 0.16-1.29 0.41-2.56 0.38-2.06 1.01-4.08l0.01-0.01q0.86-2.99 2.21-5.87c2.97-6.38 7.33-11.67 12.55-15.69 3.1-2.4 6.49-4.34 10.09-5.78l0.01-0.01c3.09-1.27 6.33-2.15 9.64-2.66 3.05-0.47 6.18-0.61 9.3-0.38-0.26 3.1-0.85 6.18-1.79 9.16q-5.05-0.12-9.97 0.93c-3.79 0.8-7.47 2.13-10.93 3.95z"/>
					<path class="s9" d="m189.35 269.89c-6.71 6.36-15.01 10.13-23.59 11.28q2.24-2.14 4.85-3.96c5.77-4.03 12.2-6.45 18.74-7.32z"/>
					<path class="s10" d="m190.17 269.09q-0.4 0.41-0.82 0.8c-6.54 0.87-12.97 3.29-18.74 7.32q-2.61 1.84-4.85 3.96-2.1 0.3-4.21 0.36 1.07-1.8 2.34-3.51 1.84-2.5 4.11-4.76c4.97-4.97 10.88-8.46 17.17-10.46 3.72-1.19 7.58-1.85 11.45-1.99q-2.66 4.46-6.45 8.28z"/>
				</g>
			</g>
			<g>
				<g>
					<path class="s11" d="m65.48 188.19q0 0.01 0 0.02-0.36 0.69-0.66 1.42l0.59-1.16 0.01-0.01 1.4-2.71q-0.71 1.18-1.34 2.44z"/>
				</g>
				<g>
					<path class="s11" d="m74.74 166.55q-0.51 0.7-1.02 1.43l0.91-1.18 1.84-2.42q-0.89 1.03-1.73 2.17zm-9.26 21.64q0 0.01 0 0.02-0.04 0.12-0.06 0.25l1.4-2.71q-0.71 1.17-1.34 2.44z"/>
				</g>
				<g>
					<path class="s11" d="m87.58 146.88v0.01q-0.6 0.56-1.18 1.16l1.06-0.98 2.22-2.03q-1.07 0.88-2.1 1.84zm-12.84 19.67q-0.07 0.13-0.11 0.25l1.84-2.42q-0.89 1.03-1.73 2.17z"/>
				</g>
				<g>
					<path class="s11" d="m103.71 129.71q-0.68 0.45-1.33 0.92l1.16-0.74 2.41-1.55q-1.15 0.63-2.24 1.37zm-16.13 17.17v0.01q-0.06 0.09-0.12 0.18l2.22-2.03q-1.06 0.88-2.1 1.84z"/>
				</g>
				<g>
					<path class="s11" d="m122.5 115.62q-0.78 0.33-1.53 0.71l1.32-0.55h0.01l2.71-1.13q-1.27 0.41-2.51 0.97zm-18.79 14.09q-0.1 0.09-0.18 0.18l2.41-1.55q-1.14 0.63-2.23 1.37zm-38.23 58.48q0 0.01 0 0.02-0.36 0.69-0.66 1.42l0.59-1.16 0.01-0.01 1.4-2.71q-0.72 1.18-1.34 2.44z"/>
				</g>
				<g>
					<path class="s11" d="m74.74 166.55q-0.51 0.7-1.02 1.43l0.91-1.18 1.84-2.42q-0.89 1.03-1.73 2.17zm-9.26 21.64q0 0.01 0 0.02-0.36 0.69-0.66 1.42l0.59-1.16 0.01-0.01 1.4-2.71q-0.71 1.17-1.34 2.44zm78.05-83.21q-0.77 0.18-1.52 0.39l1.3-0.28h0.01l2.76-0.63q-1.27 0.21-2.55 0.52zm-21.03 10.64q-0.1 0.07-0.2 0.15l2.71-1.13q-1.27 0.42-2.51 0.98z"/>
				</g>
				<g>
					<path class="s11" d="m87.58 146.88v0.01q-0.6 0.56-1.18 1.16l1.06-0.98 2.22-2.03q-1.07 0.88-2.1 1.84zm-1.18 1.17l1.06-0.98q0.06-0.09 0.12-0.18-0.6 0.56-1.18 1.16zm0 0l1.06-0.98q0.06-0.09 0.12-0.18-0.6 0.56-1.18 1.16zm-80.2 56.98l-0.35 0.84v0.01q0.26 0.33 0.48 0.66-0.06-0.77-0.13-1.51zm80.2-56.98l1.06-0.98q0.06-0.09 0.12-0.18-0.6 0.56-1.18 1.16zm-11.66 18.5q-0.51 0.7-1.02 1.43l0.91-1.18 1.84-2.42q-0.89 1.03-1.73 2.17zm11.66-18.5l1.06-0.98q0.06-0.09 0.12-0.18-0.6 0.56-1.18 1.16zm0 0l1.06-0.98q0.06-0.09 0.12-0.18-0.6 0.56-1.18 1.16zm-20.92 40.14q0 0.01 0 0.02-0.36 0.69-0.66 1.42l0.59-1.16 0.01-0.01 1.4-2.71q-0.71 1.18-1.34 2.44zm78.05-83.21q-0.1 0.03-0.21 0.11l2.76-0.63q-1.27 0.21-2.55 0.52zm22.47-6.81q-0.76 0.05-1.5 0.13l1.26-0.06h0.01l3.01-0.13q-1.38-0.03-2.78 0.06z"/>
				</g>
				<g>
					<path class="s11" d="m189.38 95.37q-0.79-0.1-1.62-0.15l1.39 0.18 2.97 0.39q-1.34-0.27-2.74-0.42zm-123.9 92.82q0 0.01 0 0.02-0.36 0.69-0.66 1.42l0.59-1.16 0.01-0.01 1.4-2.71q-0.71 1.18-1.34 2.44zm20.92-40.14l1.06-0.98q0.06-0.09 0.12-0.18-0.6 0.56-1.18 1.16zm0 0l1.06-0.98q0.06-0.09 0.12-0.18-0.6 0.56-1.18 1.16zm-11.66 18.5q-0.51 0.7-1.02 1.43l0.91-1.18 1.84-2.42q-0.89 1.03-1.73 2.17zm11.66-18.5l1.06-0.98q0.06-0.09 0.12-0.18-0.6 0.56-1.18 1.16zm-76.96 31.05l3.98-6.22 0.01-0.01v-0.02q-2.26 3.19-3.99 6.25zm-3.24 25.93l-0.35 0.84v0.01q0.26 0.33 0.48 0.66-0.06-0.77-0.13-1.51zm97.51-75.32q-0.68 0.45-1.33 0.92l1.16-0.74 2.41-1.55q-1.15 0.63-2.24 1.37zm-17.31 18.34l1.06-0.98q0.06-0.09 0.12-0.18-0.6 0.56-1.18 1.16zm-12.67 19.93l0.91-1.18q0.03-0.13 0.11-0.25-0.53 0.7-1.02 1.43zm-8.92 21.65l0.59-1.16 0.01-0.01q0.02-0.12 0.06-0.25-0.35 0.69-0.66 1.42zm21.59-41.58l1.06-0.98q0.06-0.09 0.12-0.18-0.6 0.56-1.18 1.16zm0 0l1.06-0.98q0.06-0.09 0.12-0.18-0.6 0.56-1.18 1.16zm1.18-1.17v0.01q-0.6 0.56-1.18 1.16l1.06-0.98 2.22-2.03q-1.07 0.88-2.1 1.84zm78.42-48.71q-0.1 0.03-0.22 0.07l3.01-0.13q-1.39-0.03-2.79 0.06z"/>
				</g>
				<g>
					<path class="s11" d="m122.5 115.62q-0.78 0.33-1.53 0.71l1.32-0.55h0.01l2.71-1.13q-1.27 0.41-2.51 0.97zm-57.02 72.57q0 0.01 0 0.02-0.36 0.69-0.66 1.42l0.59-1.16 0.01-0.01 1.4-2.71q-0.71 1.18-1.34 2.44zm20.92-40.14l1.06-0.98q0.06-0.09 0.12-0.18-0.6 0.56-1.18 1.16zm0 0l1.06-0.98q0.06-0.09 0.12-0.18-0.6 0.56-1.18 1.16zm-11.66 18.5q-0.51 0.7-1.02 1.43l0.91-1.18 1.84-2.42q-0.89 1.03-1.73 2.17zm11.66-18.5l1.06-0.98q0.06-0.09 0.12-0.18-0.6 0.56-1.18 1.16zm-76.96 31.05l3.98-6.22 0.01-0.01v-0.02q-2.26 3.19-3.99 6.25zm-3.24 25.93l-0.35 0.84v0.01q0.25 0.33 0.48 0.66-0.07-0.77-0.13-1.51zm97.51-75.32q-0.68 0.45-1.33 0.92l1.16-0.74 2.41-1.55q-1.15 0.63-2.24 1.37zm-17.31 18.34l1.06-0.98q0.06-0.09 0.12-0.18-0.6 0.56-1.18 1.16zm-12.67 19.93l0.91-1.18q0.03-0.13 0.11-0.25-0.53 0.7-1.02 1.43zm-8.92 21.65l0.59-1.16 0.01-0.01q0.02-0.12 0.06-0.25-0.35 0.69-0.66 1.42zm21.59-41.58l1.06-0.98q0.06-0.09 0.12-0.18-0.6 0.56-1.18 1.16zm0 0l1.06-0.98q0.06-0.09 0.12-0.18-0.6 0.56-1.18 1.16zm1.18-1.17v0.01q-0.6 0.56-1.18 1.16l1.06-0.98 2.22-2.03q-1.07 0.88-2.1 1.84zm101.8-51.51q-0.12 0-0.22 0.02l2.97 0.39q-1.35-0.26-2.75-0.41zm23.48 1.29q-0.65-0.2-1.32-0.37l1.11 0.35 2.79 0.87q-1.28-0.47-2.58-0.85z"/>
				</g>
				<g>
					<path class="s11" d="m235.79 102.02q-0.69-0.36-1.42-0.66l1.16 0.59 0.01 0.01 2.71 1.4q-1.18-0.72-2.46-1.34zm-22.93-5.36q-0.1 0-0.21-0.01l2.79 0.87q-1.28-0.48-2.58-0.86zm-125.28 50.22v0.01q-0.6 0.56-1.18 1.16l1.06-0.98 2.22-2.03q-1.06 0.88-2.1 1.84zm34.92-31.26q-0.78 0.33-1.53 0.71l1.32-0.55h0.01l2.71-1.13q-1.27 0.41-2.51 0.97zm-57.02 72.57q0 0.01 0 0.02-0.36 0.69-0.66 1.42l0.59-1.16 0.01-0.01 1.4-2.71q-0.71 1.18-1.34 2.44zm22.1-41.31v0.01q-0.6 0.56-1.18 1.16l1.06-0.98 2.22-2.03q-1.06 0.88-2.1 1.84zm34.92-31.26q-0.78 0.33-1.53 0.71l1.32-0.55h0.01l2.71-1.13q-1.27 0.41-2.51 0.97zm-57.02 72.57q0 0.01 0 0.02-0.36 0.69-0.66 1.42l0.59-1.16 0.01-0.01 1.4-2.71q-0.71 1.18-1.34 2.44zm22.1-41.31v0.01q-0.6 0.56-1.18 1.16l1.06-0.98 2.22-2.03q-1.06 0.88-2.1 1.84zm34.92-31.26q-0.78 0.33-1.53 0.71l1.32-0.55h0.01l2.71-1.13q-1.27 0.41-2.51 0.97zm-57.02 72.57q0 0.01 0 0.02-0.36 0.69-0.66 1.42l0.59-1.16 0.01-0.01 1.4-2.71q-0.71 1.18-1.34 2.44zm9.26-21.64q-0.51 0.7-1.02 1.43l0.91-1.18 1.84-2.42q-0.89 1.03-1.73 2.17zm12.84-19.67v0.01q-0.6 0.56-1.18 1.16l1.06-0.98 2.22-2.03q-1.06 0.88-2.1 1.84zm16.13-17.17q-0.68 0.45-1.33 0.92l1.16-0.74 2.41-1.55q-1.15 0.63-2.24 1.37zm18.79-14.09q-0.78 0.33-1.53 0.71l1.32-0.55h0.01l2.71-1.13q-1.27 0.41-2.51 0.97zm-57.02 72.57q0 0.01 0 0.02-0.36 0.69-0.66 1.42l0.59-1.16 0.01-0.01 1.4-2.71q-0.71 1.18-1.34 2.44zm9.26-21.64q-0.51 0.7-1.02 1.43l0.91-1.18 1.84-2.42q-0.89 1.03-1.73 2.17zm12.84-19.67v0.01q-0.6 0.56-1.18 1.16l1.06-0.98 2.22-2.03q-1.06 0.88-2.1 1.84zm16.13-17.17q-0.68 0.45-1.33 0.92l1.16-0.74 2.41-1.55q-1.15 0.63-2.24 1.37zm18.79-14.09q-0.78 0.33-1.53 0.71l1.32-0.55h0.01l2.71-1.13q-1.27 0.41-2.51 0.97zm-57.02 72.57q0 0.01 0 0.02-0.36 0.69-0.66 1.42l0.59-1.16 0.01-0.01 1.4-2.71q-0.71 1.18-1.34 2.44zm9.26-21.64q-0.51 0.7-1.02 1.43l0.91-1.18 1.84-2.42q-0.89 1.03-1.73 2.17zm12.84-19.67v0.01q-0.6 0.56-1.18 1.16l1.06-0.98 2.22-2.03q-1.06 0.88-2.1 1.84zm16.13-17.17q-0.68 0.45-1.33 0.92l1.16-0.74 2.41-1.55q-1.15 0.63-2.24 1.37zm18.79-14.09q-0.78 0.33-1.53 0.71l1.32-0.55h0.01l2.71-1.13q-1.27 0.41-2.51 0.97zm21.03-10.64q-0.77 0.18-1.52 0.39l1.3-0.28h0.01l2.76-0.63q-1.27 0.21-2.55 0.52zm-134.09 74.12l3.98-6.22 0.01-0.01v-0.02q-2.26 3.19-3.99 6.25zm113.06-63.48q-0.78 0.33-1.53 0.71l1.32-0.55h0.01l2.71-1.13q-1.27 0.41-2.51 0.97zm-18.79 14.09q-0.68 0.45-1.33 0.92l1.16-0.74 2.41-1.55q-1.15 0.63-2.24 1.37zm-16.13 17.17v0.01q-0.6 0.56-1.18 1.16l1.06-0.98 2.22-2.03q-1.06 0.88-2.1 1.84zm-12.84 19.67q-0.51 0.7-1.02 1.43l0.91-1.18 1.84-2.42q-0.89 1.03-1.73 2.17zm-9.26 21.64q0 0.01 0 0.02-0.36 0.69-0.66 1.42l0.59-1.16 0.01-0.01 1.4-2.71q-0.71 1.18-1.34 2.44zm76.53-82.82l1.3-0.28h0.01q0.1-0.07 0.21-0.11-0.75 0.18-1.52 0.39zm-19.51 10.25q-0.78 0.33-1.53 0.71l1.32-0.55h0.01l2.71-1.13q-1.27 0.41-2.51 0.97zm-18.79 14.09q-0.68 0.45-1.33 0.92l1.16-0.74 2.41-1.55q-1.15 0.63-2.24 1.37zm-16.13 17.17v0.01q-0.6 0.56-1.18 1.16l1.06-0.98 2.22-2.03q-1.06 0.88-2.1 1.84zm-12.84 19.67q-0.51 0.7-1.02 1.43l0.91-1.18 1.84-2.42q-0.89 1.03-1.73 2.17zm-9.26 21.64q0 0.01 0 0.02-0.36 0.69-0.66 1.42l0.59-1.16 0.01-0.01 1.4-2.71q-0.71 1.18-1.34 2.44zm57.02-72.57q-0.78 0.33-1.53 0.71l1.32-0.55h0.01l2.71-1.13q-1.27 0.41-2.51 0.97zm-34.92 31.26v0.01q-0.6 0.56-1.18 1.16l1.06-0.98 2.22-2.03q-1.06 0.88-2.1 1.84zm-12.84 19.67q-0.51 0.7-1.02 1.43l0.91-1.18 1.84-2.42q-0.89 1.03-1.73 2.17zm-9.26 21.64q0 0.01 0 0.02-0.36 0.69-0.66 1.42l0.59-1.16 0.01-0.01 1.4-2.71q-0.71 1.18-1.34 2.44zm57.02-72.57q-0.78 0.33-1.53 0.71l1.32-0.55h0.01l2.71-1.13q-1.27 0.41-2.51 0.97zm-34.92 31.26v0.01q-0.6 0.56-1.18 1.16l1.06-0.98 2.22-2.03q-1.06 0.88-2.1 1.84zm-22.1 41.31q0 0.01 0 0.02-0.36 0.69-0.66 1.42l0.59-1.16 0.01-0.01 1.4-2.71q-0.71 1.18-1.34 2.44zm57.02-72.57q-0.78 0.33-1.53 0.71l1.32-0.55h0.01l2.71-1.13q-1.27 0.41-2.51 0.97zm-34.92 31.26v0.01q-0.6 0.56-1.18 1.16l1.06-0.98 2.22-2.03q-1.06 0.88-2.1 1.84zm-22.1 41.31q0 0.01 0 0.02-0.36 0.69-0.66 1.42l0.59-1.16 0.01-0.01 1.4-2.71q-0.71 1.18-1.34 2.44zm57.02-72.57q-0.78 0.33-1.53 0.71l1.32-0.55h0.01l2.71-1.13q-1.27 0.41-2.51 0.97z"/>
				</g>
				<g>
					<path class="s11" d="m122.5 115.62q-0.78 0.33-1.53 0.71l1.32-0.55h0.01l2.71-1.13q-1.27 0.41-2.51 0.97zm-57.02 72.57q0 0.01 0 0.02-0.36 0.69-0.66 1.42l0.59-1.16 0.01-0.01 1.4-2.71q-0.71 1.18-1.34 2.44zm9.26-21.64q-0.51 0.7-1.02 1.43l0.91-1.18 1.84-2.42q-0.89 1.03-1.73 2.17zm47.76-50.93q-0.78 0.33-1.53 0.71l1.32-0.55h0.01l2.71-1.13q-1.27 0.41-2.51 0.97zm-34.92 31.26v0.01q-0.6 0.56-1.18 1.16l1.06-0.98 2.22-2.03q-1.06 0.88-2.1 1.84zm34.92-31.26q-0.78 0.33-1.53 0.71l1.32-0.55h0.01l2.71-1.13q-1.27 0.41-2.51 0.97zm-57.02 72.57q0 0.01 0 0.02-0.36 0.69-0.66 1.42l0.59-1.16 0.01-0.01 1.4-2.71q-0.71 1.18-1.34 2.44zm22.1-41.31v0.01q-0.6 0.56-1.18 1.16l1.06-0.98 2.22-2.03q-1.06 0.88-2.1 1.84zm34.92-31.26q-0.78 0.33-1.53 0.71l1.32-0.55h0.01l2.71-1.13q-1.27 0.41-2.51 0.97zm-57.02 72.57q0 0.01 0 0.02-0.36 0.69-0.66 1.42l0.59-1.16 0.01-0.01 1.4-2.71q-0.71 1.18-1.34 2.44zm22.1-41.31v0.01q-0.6 0.56-1.18 1.16l1.06-0.98 2.22-2.03q-1.06 0.88-2.1 1.84zm34.92-31.26q-0.78 0.33-1.53 0.71l1.32-0.55h0.01l2.71-1.13q-1.27 0.41-2.51 0.97zm-57.02 72.57q0 0.01 0 0.02-0.36 0.69-0.66 1.42l0.59-1.16 0.01-0.01 1.4-2.71q-0.71 1.18-1.34 2.44zm9.26-21.64q-0.51 0.7-1.02 1.43l0.91-1.18 1.84-2.42q-0.89 1.03-1.73 2.17zm47.76-50.93q-0.78 0.33-1.53 0.71l1.32-0.55h0.01l2.71-1.13q-1.27 0.41-2.51 0.97zm-18.79 14.09q-0.68 0.45-1.33 0.92l1.16-0.74 2.41-1.55q-1.15 0.63-2.24 1.37zm-16.13 17.17v0.01q-0.6 0.56-1.18 1.16l1.06-0.98 2.22-2.03q-1.06 0.88-2.1 1.84zm-22.1 41.31q0 0.01 0 0.02-0.36 0.69-0.66 1.42l0.59-1.16 0.01-0.01 1.4-2.71q-0.71 1.18-1.34 2.44zm9.26-21.64q-0.51 0.7-1.02 1.43l0.91-1.18 1.84-2.42q-0.89 1.03-1.73 2.17zm12.84-19.67v0.01q-0.06 0.09-0.12 0.18l2.22-2.03q-1.06 0.88-2.1 1.84zm16.13-17.17q-0.68 0.45-1.33 0.92l1.16-0.74 2.41-1.55q-1.15 0.63-2.24 1.37zm18.79-14.09q-0.78 0.33-1.53 0.71l1.32-0.55h0.01l2.71-1.13q-1.27 0.41-2.51 0.97zm21.03-10.64q-0.77 0.18-1.52 0.39l1.3-0.28h0.01l2.76-0.63q-1.27 0.21-2.55 0.52zm-68.79 61.57q-0.51 0.7-1.02 1.43l0.91-1.18 1.84-2.42q-0.89 1.03-1.73 2.17zm-9.26 21.64q0 0.01 0 0.02-0.36 0.69-0.66 1.42l0.59-1.16 0.01-0.01 1.4-2.71q-0.71 1.18-1.34 2.44zm22.1-41.31v0.01q-0.06 0.09-0.12 0.18l2.22-2.03q-1.06 0.88-2.1 1.84zm16.13-17.17q-0.68 0.45-1.33 0.92l1.16-0.74 2.41-1.55q-1.15 0.63-2.24 1.37zm18.79-14.09q-0.78 0.33-1.53 0.71l1.32-0.55h0.01l2.71-1.13q-1.27 0.41-2.51 0.97zm19.51-10.25l1.3-0.28h0.01q0.1-0.07 0.21-0.11-0.75 0.18-1.52 0.39zm-19.51 10.25q-0.78 0.33-1.53 0.71l1.32-0.55h0.01l2.71-1.13q-1.27 0.41-2.51 0.97zm-18.79 14.09q-0.68 0.45-1.33 0.92l1.16-0.74 2.41-1.55q-1.15 0.63-2.24 1.37zm-16.13 17.17v0.01q-0.06 0.09-0.12 0.18l2.22-2.03q-1.06 0.88-2.1 1.84zm-12.84 19.67q-0.07 0.13-0.11 0.25l1.84-2.42q-0.89 1.03-1.73 2.17zm-9.26 21.64q0 0.01 0 0.02-0.36 0.69-0.66 1.42l0.59-1.16 0.01-0.01 1.4-2.71q-0.71 1.18-1.34 2.44zm57.02-72.57q-0.78 0.33-1.53 0.71l1.32-0.55h0.01l2.71-1.13q-1.27 0.41-2.51 0.97zm-34.92 31.26v0.01q-0.06 0.09-0.12 0.18l2.22-2.03q-1.06 0.88-2.1 1.84zm-22.1 41.31q0 0.01 0 0.02-0.36 0.69-0.66 1.42l0.59-1.16 0.01-0.01 1.4-2.71q-0.71 1.18-1.34 2.44zm57.02-72.57q-0.78 0.33-1.53 0.71l1.32-0.55h0.01l2.71-1.13q-1.27 0.41-2.51 0.97zm-34.92 31.26v0.01q-0.06 0.09-0.12 0.18l2.22-2.03q-1.06 0.88-2.1 1.84zm-22.1 41.31q0 0.01 0 0.02-0.04 0.13-0.06 0.25l1.4-2.71q-0.71 1.18-1.34 2.44zm22.1-41.31v0.01q-0.06 0.09-0.12 0.18l2.22-2.03q-1.06 0.88-2.1 1.84zm78.42-48.71q-0.76 0.05-1.5 0.13l1.26-0.06h0.01l3.01-0.13q-1.38-0.03-2.78 0.06zm69.79 3.85q-0.13-0.04-0.25-0.06l2.71 1.4q-1.18-0.72-2.46-1.34zm21.67 9.26h-0.01q-0.7-0.51-1.43-1.02l1.18 0.91 2.28 1.72q-0.97-0.82-2.02-1.61z"/>
				</g>
				<g>
					<path class="s11" d="m257.46 111.28h-0.01q-0.12-0.06-0.25-0.11l2.28 1.72q-0.97-0.82-2.02-1.61zm-91.46-13.11q-0.76 0.05-1.5 0.13l1.26-0.06h0.01l3.01-0.13q-1.38-0.03-2.78 0.06zm-78.42 48.71v0.01q-0.6 0.56-1.18 1.16l1.06-0.98 2.22-2.03q-1.06 0.88-2.1 1.84zm-22.1 41.31q0 0.01 0 0.02-0.36 0.69-0.66 1.42l0.59-1.16 0.01-0.01 1.4-2.71q-0.71 1.18-1.34 2.44zm22.1-41.31v0.01q-0.6 0.56-1.18 1.16l1.06-0.98 2.22-2.03q-1.06 0.88-2.1 1.84zm34.92-31.26q-0.78 0.33-1.53 0.71l1.32-0.55h0.01l2.71-1.13q-1.27 0.41-2.51 0.97zm42-17.32l1.26-0.06h0.01q0.12-0.04 0.22-0.07-0.75 0.05-1.49 0.13zm-99.02 89.89q0 0.01 0 0.02-0.36 0.69-0.66 1.42l0.59-1.16 0.01-0.01 1.4-2.71q-0.71 1.18-1.34 2.44zm22.1-41.31v0.01q-0.6 0.56-1.18 1.16l1.06-0.98 2.22-2.03q-1.06 0.88-2.1 1.84zm34.92-31.26q-0.78 0.33-1.53 0.71l1.32-0.55h0.01l2.71-1.13q-1.27 0.41-2.51 0.97zm42-17.32l1.26-0.06h0.01q0.12-0.04 0.22-0.07-0.75 0.05-1.49 0.13zm-99.02 89.89q0 0.01 0 0.02-0.36 0.69-0.66 1.42l0.59-1.16 0.01-0.01 1.4-2.71q-0.71 1.18-1.34 2.44zm9.26-21.64q-0.51 0.7-1.02 1.43l0.91-1.18 1.84-2.42q-0.89 1.03-1.73 2.17zm12.84-19.67v0.01q-0.6 0.56-1.18 1.16l1.06-0.98 2.22-2.03q-1.07 0.88-2.1 1.84zm16.13-17.17q-0.68 0.45-1.33 0.92l1.16-0.74 2.41-1.55q-1.15 0.63-2.24 1.37zm18.79-14.09q-0.78 0.33-1.53 0.71l1.32-0.55h0.01l2.71-1.13q-1.27 0.41-2.51 0.97zm42-17.32l1.26-0.06h0.01q0.12-0.04 0.22-0.07-0.75 0.05-1.49 0.13zm-99.02 89.89q0 0.01 0 0.02-0.36 0.69-0.66 1.42l0.59-1.16 0.01-0.01 1.4-2.71q-0.71 1.18-1.34 2.44zm57.02-72.57q-0.78 0.33-1.53 0.71l1.32-0.55h0.01l2.71-1.13q-1.27 0.41-2.51 0.97zm-18.79 14.09q-0.68 0.45-1.33 0.92l1.16-0.74 2.41-1.55q-1.15 0.63-2.24 1.37zm-16.13 17.17v0.01q-0.6 0.56-1.18 1.16l1.06-0.98 2.22-2.03q-1.07 0.88-2.1 1.84zm-12.84 19.67q-0.51 0.7-1.02 1.43l0.91-1.18 1.84-2.42q-0.89 1.03-1.73 2.17zm-9.26 21.64q0 0.01 0 0.02-0.36 0.69-0.66 1.42l0.59-1.16 0.01-0.01 1.4-2.71q-0.72 1.18-1.34 2.44zm9.26-21.64q-0.51 0.7-1.02 1.43l0.91-1.18 1.84-2.42q-0.89 1.03-1.73 2.17zm12.84-19.67v0.01q-0.06 0.09-0.12 0.18l2.22-2.03q-1.07 0.88-2.1 1.84zm16.13-17.17q-0.68 0.45-1.33 0.92l1.16-0.74 2.41-1.55q-1.15 0.63-2.24 1.37zm18.79-14.09q-0.78 0.33-1.53 0.71l1.32-0.55h0.01l2.71-1.13q-1.27 0.41-2.51 0.97zm21.03-10.64q-0.77 0.18-1.52 0.39l1.3-0.28h0.01l2.76-0.63q-1.27 0.21-2.55 0.52zm-78.05 83.21q0 0.01 0 0.02-0.36 0.69-0.66 1.42l0.59-1.16 0.01-0.01 1.4-2.71q-0.72 1.18-1.34 2.44zm9.26-21.64q-0.51 0.7-1.02 1.43l0.91-1.18 1.84-2.42q-0.89 1.03-1.73 2.17zm12.84-19.67v0.01q-0.06 0.09-0.12 0.18l2.22-2.03q-1.07 0.88-2.1 1.84zm16.13-17.17q-0.68 0.45-1.33 0.92l1.16-0.74 2.41-1.55q-1.15 0.63-2.24 1.37zm18.79-14.09q-0.78 0.33-1.53 0.71l1.32-0.55h0.01l2.71-1.13q-1.27 0.41-2.51 0.97zm19.51-10.25l1.3-0.28h0.01q0.1-0.07 0.21-0.11-0.75 0.18-1.52 0.39zm22.49-7.07l1.26-0.06h0.01q0.12-0.04 0.22-0.07-0.75 0.05-1.49 0.13zm24.88-2.93q-0.79-0.1-1.62-0.15l1.39 0.18 2.97 0.39q-1.34-0.27-2.74-0.42zm-24.88 2.93l1.26-0.06h0.01q0.12-0.04 0.22-0.07-0.75 0.05-1.49 0.13zm-22.49 7.07l1.3-0.28h0.01q0.1-0.07 0.21-0.11-0.75 0.18-1.52 0.39zm-19.51 10.25q-0.78 0.33-1.53 0.71l1.32-0.55h0.01l2.71-1.13q-1.27 0.41-2.51 0.97zm-18.79 14.09q-0.68 0.45-1.33 0.92l1.16-0.74 2.41-1.55q-1.15 0.63-2.24 1.37zm-16.13 17.17v0.01q-0.06 0.09-0.12 0.18l2.22-2.03q-1.07 0.88-2.1 1.84zm-12.84 19.67q-0.51 0.7-1.02 1.43l0.91-1.18 1.84-2.42q-0.89 1.03-1.73 2.17zm-9.26 21.64q0 0.01 0 0.02-0.36 0.69-0.66 1.42l0.59-1.16 0.01-0.01 1.4-2.71q-0.72 1.18-1.34 2.44zm99.02-89.89l1.26-0.06h0.01q0.12-0.04 0.22-0.07-0.75 0.05-1.49 0.13zm-42 17.32q-0.78 0.33-1.53 0.71l1.32-0.55h0.01l2.71-1.13q-1.27 0.41-2.51 0.97zm-34.92 31.26v0.01q-0.06 0.09-0.12 0.18l2.22-2.03q-1.07 0.88-2.1 1.84zm-22.1 41.31q0 0.01 0 0.02-0.36 0.69-0.66 1.42l0.59-1.16 0.01-0.01 1.4-2.71q-0.71 1.18-1.34 2.44zm99.02-89.89l1.26-0.06h0.01q0.12-0.04 0.22-0.07-0.75 0.05-1.49 0.13zm-42 17.32q-0.78 0.33-1.53 0.71l1.32-0.55h0.01l2.71-1.13q-1.27 0.41-2.51 0.97zm-34.92 31.26v0.01q-0.06 0.09-0.12 0.18l2.22-2.03q-1.06 0.88-2.1 1.84zm-22.1 41.31q0 0.01 0 0.02-0.36 0.69-0.66 1.42l0.59-1.16 0.01-0.01 1.4-2.71q-0.71 1.18-1.34 2.44zm99.02-89.89l1.26-0.06h0.01q0.12-0.04 0.22-0.07-0.75 0.05-1.49 0.13zm-42 17.32q-0.78 0.33-1.53 0.71l1.32-0.55h0.01l2.71-1.13q-1.27 0.41-2.51 0.97zm-34.92 31.26v0.01q-0.06 0.09-0.12 0.18l2.22-2.03q-1.06 0.88-2.1 1.84zm34.92-31.26q-0.78 0.33-1.53 0.71l1.32-0.55h0.01l2.71-1.13q-1.27 0.41-2.51 0.97zm42-17.32l1.26-0.06h0.01q0.12-0.04 0.22-0.07-0.75 0.05-1.49 0.13zm-89.76 68.25q-0.07 0.13-0.11 0.25l1.84-2.42q-0.89 1.03-1.73 2.17zm-9.26 21.64q0 0.01 0 0.02-0.04 0.13-0.06 0.25l1.4-2.71q-0.71 1.18-1.34 2.44zm99.02-89.89l1.26-0.06h0.01q0.12-0.04 0.22-0.07-0.75 0.05-1.49 0.13zm-42 17.32q-0.78 0.33-1.53 0.71l1.32-0.55h0.01l2.71-1.13q-1.27 0.41-2.51 0.97z"/>
				</g>
				<g>
					<path class="s11" d="m212.86 96.66q-0.65-0.2-1.32-0.37l1.11 0.35 2.79 0.87q-1.28-0.47-2.58-0.85zm-46.86 1.51q-0.76 0.05-1.5 0.13l1.26-0.06h0.01l3.01-0.13q-1.38-0.03-2.78 0.06zm-78.42 48.71v0.01q-0.6 0.56-1.18 1.16l1.06-0.98 2.22-2.03q-1.07 0.88-2.1 1.84zm-1.18 1.17l1.06-0.98q0.06-0.09 0.12-0.18-0.6 0.56-1.18 1.16zm0 0l1.06-0.98q0.06-0.09 0.12-0.18-0.6 0.56-1.18 1.16zm-21.59 41.58l0.59-1.16 0.01-0.01q0.02-0.12 0.06-0.25-0.35 0.69-0.66 1.42zm9.93-23.08q-0.51 0.7-1.02 1.43l0.91-1.18 1.84-2.42q-0.89 1.03-1.73 2.17zm11.66-18.5l1.06-0.98q0.06-0.09 0.12-0.18-0.6 0.56-1.18 1.16zm17.31-18.34q-0.68 0.45-1.33 0.92l1.16-0.74 2.41-1.55q-1.15 0.63-2.24 1.37zm-97.51 75.32l-0.35 0.84v0.01q0.25 0.33 0.48 0.66-0.07-0.77-0.13-1.51zm80.2-56.98l1.06-0.98q0.06-0.09 0.12-0.18-0.6 0.56-1.18 1.16zm-11.66 18.5q-0.51 0.7-1.02 1.43l0.91-1.18 1.84-2.42q-0.89 1.03-1.73 2.17zm11.66-18.5l1.06-0.98q0.06-0.09 0.12-0.18-0.6 0.56-1.18 1.16zm0 0l1.06-0.98q0.06-0.09 0.12-0.18-0.6 0.56-1.18 1.16zm-20.92 40.14q0 0.01 0 0.02-0.36 0.69-0.66 1.42l0.59-1.16 0.01-0.01 1.4-2.71q-0.72 1.18-1.34 2.44zm99.02-89.89l1.26-0.06h0.01q0.12-0.04 0.22-0.07-0.75 0.05-1.49 0.13zm-42 17.32q-0.78 0.33-1.53 0.71l1.32-0.55h0.01l2.71-1.13q-1.27 0.41-2.51 0.97zm0 0q-0.78 0.33-1.53 0.71l1.32-0.55h0.01l2.71-1.13q-1.27 0.41-2.51 0.97zm42-17.32l1.26-0.06h0.01q0.12-0.04 0.22-0.07-0.75 0.05-1.49 0.13zm-99.02 89.89q0 0.01 0 0.02-0.36 0.69-0.66 1.42l0.59-1.16 0.01-0.01 1.4-2.71q-0.72 1.18-1.34 2.44zm22.1-41.31v0.01q-0.6 0.56-1.18 1.16l1.06-0.98 2.22-2.03q-1.07 0.88-2.1 1.84zm34.92-31.26q-0.78 0.33-1.53 0.71l1.32-0.55h0.01l2.71-1.13q-1.27 0.41-2.51 0.97zm42-17.32l1.26-0.06h0.01q0.12-0.04 0.22-0.07-0.75 0.05-1.49 0.13zm-99.02 89.89q0 0.01 0 0.02-0.36 0.69-0.66 1.42l0.59-1.16 0.01-0.01 1.4-2.71q-0.72 1.18-1.34 2.44zm22.1-41.31v0.01q-0.6 0.56-1.18 1.16l1.06-0.98 2.22-2.03q-1.07 0.88-2.1 1.84zm34.92-31.26q-0.78 0.33-1.53 0.71l1.32-0.55h0.01l2.71-1.13q-1.27 0.41-2.51 0.97zm42-17.32l1.26-0.06h0.01q0.12-0.04 0.22-0.07-0.75 0.05-1.49 0.13zm-99.02 89.89q0 0.01 0 0.02-0.36 0.69-0.66 1.42l0.59-1.16 0.01-0.01 1.4-2.71q-0.72 1.18-1.34 2.44zm9.26-21.64q-0.51 0.7-1.02 1.43l0.91-1.18 1.84-2.42q-0.89 1.03-1.73 2.17zm12.84-19.67v0.01q-0.6 0.56-1.18 1.16l1.06-0.98 2.22-2.03q-1.07 0.88-2.1 1.84zm34.92-31.26q-0.78 0.33-1.53 0.71l1.32-0.55h0.01l2.71-1.13q-1.27 0.41-2.51 0.97zm42-17.32l1.26-0.06h0.01q0.12-0.03 0.22-0.07-0.75 0.05-1.49 0.13zm-99.02 89.89q0 0.01 0 0.02-0.36 0.69-0.66 1.42l0.59-1.16 0.01-0.01 1.4-2.71q-0.72 1.18-1.34 2.44zm9.26-21.64q-0.51 0.7-1.02 1.43l0.91-1.18 1.84-2.42q-0.89 1.03-1.73 2.17zm12.84-19.67v0.01q-0.6 0.56-1.18 1.16l1.06-0.98 2.22-2.03q-1.07 0.88-2.1 1.84zm34.92-31.26q-0.78 0.33-1.53 0.71l1.32-0.55h0.01l2.71-1.13q-1.27 0.41-2.51 0.97zm-18.79 14.09q-0.68 0.45-1.33 0.92l1.16-0.74 2.41-1.55q-1.15 0.63-2.24 1.37zm-38.23 58.48q0 0.01 0 0.02-0.36 0.69-0.66 1.42l0.59-1.16 0.01-0.01 1.4-2.71q-0.72 1.18-1.34 2.44zm9.26-21.64q-0.51 0.7-1.02 1.43l0.91-1.18 1.84-2.42q-0.89 1.03-1.73 2.17zm12.84-19.67v0.01q-0.06 0.09-0.12 0.18l2.22-2.03q-1.07 0.88-2.1 1.84zm16.13-17.17q-0.68 0.45-1.33 0.92l1.16-0.74 2.41-1.55q-1.15 0.63-2.24 1.37zm18.79-14.09q-0.78 0.33-1.53 0.71l1.32-0.55h0.01l2.71-1.13q-1.27 0.41-2.51 0.97zm21.03-10.64q-0.77 0.18-1.52 0.39l1.3-0.28h0.01l2.76-0.63q-1.28 0.21-2.55 0.52zm-55.95 41.9v0.01q-0.06 0.09-0.12 0.18l2.22-2.03q-1.07 0.88-2.1 1.84zm-13.85 21.1l0.91-1.18q0.03-0.12 0.11-0.25-0.53 0.7-1.02 1.43zm-8.25 20.21q0 0.01 0 0.02-0.36 0.69-0.66 1.42l0.59-1.16 0.01-0.01 1.4-2.71q-0.72 1.18-1.34 2.44zm38.23-58.48q-0.68 0.45-1.33 0.92l1.16-0.74 2.41-1.55q-1.15 0.63-2.24 1.37zm18.79-14.09q-0.78 0.33-1.53 0.71l1.32-0.55h0.01l2.71-1.13q-1.27 0.41-2.51 0.97zm19.51-10.25l1.3-0.28h0.01q0.1-0.07 0.21-0.11-0.75 0.18-1.52 0.39zm22.49-7.07l1.26-0.06h0.01q0.12-0.03 0.22-0.07-0.75 0.05-1.49 0.13zm24.88-2.93q-0.8-0.1-1.62-0.15l1.39 0.18 2.97 0.39q-1.34-0.27-2.74-0.42zm-24.88 2.93l1.26-0.06h0.01q0.12-0.03 0.22-0.07-0.75 0.05-1.49 0.13zm-22.49 7.07l1.3-0.28h0.01q0.1-0.07 0.21-0.11-0.75 0.18-1.52 0.39zm-19.51 10.25q-0.78 0.33-1.53 0.71l1.32-0.55h0.01l2.71-1.13q-1.27 0.41-2.51 0.97zm-18.79 14.09q-0.68 0.45-1.33 0.92l1.16-0.74 2.41-1.55q-1.15 0.63-2.24 1.37zm-16.13 17.17v0.01q-0.06 0.09-0.12 0.18l2.22-2.03q-1.07 0.88-2.1 1.84zm-12.84 19.67q-0.07 0.13-0.11 0.25l1.84-2.42q-0.89 1.03-1.73 2.17zm-9.26 21.64q0 0.01 0 0.02-0.36 0.69-0.66 1.42l0.59-1.16 0.01-0.01 1.4-2.71q-0.72 1.18-1.34 2.44zm99.02-89.89l1.26-0.06h0.01q0.12-0.03 0.22-0.07-0.75 0.05-1.49 0.13zm-42 17.32q-0.78 0.33-1.53 0.71l1.32-0.55h0.01l2.71-1.13q-1.27 0.41-2.51 0.97zm-34.92 31.26v0.01q-0.06 0.09-0.12 0.18l2.22-2.03q-1.07 0.88-2.1 1.84zm-22.1 41.31q0 0.01 0 0.02-0.36 0.69-0.66 1.42l0.59-1.16 0.01-0.01 1.4-2.71q-0.72 1.18-1.34 2.44zm99.02-89.89l1.26-0.06h0.01q0.12-0.04 0.22-0.07-0.75 0.05-1.49 0.13zm-42 17.32q-0.78 0.33-1.53 0.71l1.32-0.55h0.01l2.71-1.13q-1.27 0.41-2.51 0.97zm-34.92 31.26v0.01q-0.06 0.09-0.12 0.18l2.22-2.03q-1.07 0.88-2.1 1.84zm-22.1 41.31q0 0.01 0 0.02-0.04 0.13-0.06 0.25l1.4-2.71q-0.72 1.18-1.34 2.44zm99.02-89.89l1.26-0.06h0.01q0.12-0.04 0.22-0.07-0.75 0.05-1.49 0.13zm-42 17.32q-0.78 0.33-1.53 0.71l1.32-0.55h0.01l2.71-1.13q-1.27 0.41-2.51 0.97zm-34.92 31.26v0.01q-0.06 0.09-0.12 0.18l2.22-2.03q-1.07 0.88-2.1 1.84z"/>
				</g>
				<g>
					<path class="s11" d="m166 98.17q-0.76 0.05-1.5 0.13l1.26-0.06h0.01l3.01-0.13q-1.38-0.03-2.78 0.06zm45.54-1.88l1.11 0.35q0.1 0.01 0.21 0.01-0.66-0.19-1.32-0.36zm-47.04 2.01l1.26-0.06h0.01q0.12-0.04 0.22-0.07-0.75 0.05-1.49 0.13zm47.04-2.01l1.11 0.35q0.1 0.01 0.21 0.01-0.66-0.19-1.32-0.36zm-47.04 2.01l1.26-0.06h0.01q0.12-0.04 0.22-0.07-0.75 0.05-1.49 0.13zm47.04-2.01l1.11 0.35q0.1 0.01 0.21 0.01-0.66-0.19-1.32-0.36zm-47.04 2.01l1.26-0.06h0.01q0.12-0.04 0.22-0.07-0.75 0.05-1.49 0.13zm47.04-2.01l1.11 0.35q0.1 0.01 0.21 0.01-0.66-0.19-1.32-0.36zm-47.04 2.01l1.26-0.06h0.01q0.12-0.04 0.22-0.07-0.75 0.05-1.49 0.13zm47.04-2.01l1.11 0.35q0.1 0.01 0.21 0.01-0.66-0.19-1.32-0.36zm-68.01 8.69q-0.77 0.18-1.52 0.39l1.3-0.28h0.01l2.76-0.63q-1.27 0.21-2.55 0.52zm20.97-6.68l1.26-0.06h0.01q0.12-0.04 0.22-0.07-0.75 0.05-1.49 0.13zm24.88-2.93q-0.79-0.1-1.62-0.15l1.39 0.18 2.97 0.39q-1.34-0.27-2.74-0.42zm22.16 0.92l1.11 0.35q0.11 0.01 0.21 0.01-0.66-0.19-1.32-0.36zm24.25 5.73q-0.69-0.36-1.42-0.66l1.16 0.59 0.01 0.01 2.71 1.4q-1.18-0.72-2.46-1.34zm-24.25-5.73l1.11 0.35q0.11 0.01 0.21 0.01-0.66-0.19-1.32-0.36zm-23.78-1.07l1.39 0.18q0.1-0.02 0.22-0.02-0.78-0.12-1.61-0.16zm-23.26 3.08l1.26-0.06h0.01q0.12-0.04 0.22-0.07-0.75 0.05-1.49 0.13zm-22.49 7.07l1.3-0.28h0.01q0.1-0.07 0.21-0.11-0.75 0.18-1.52 0.39zm69.53-9.08l1.11 0.35q0.11 0.01 0.21 0.01-0.66-0.19-1.32-0.36zm-47.04 2.01l1.26-0.06h0.01q0.12-0.04 0.22-0.07-0.75 0.05-1.49 0.13zm-22.49 7.07l1.3-0.28h0.01q0.1-0.07 0.21-0.11-0.75 0.18-1.52 0.39zm69.53-9.08l1.11 0.35q0.1 0.01 0.21 0.01-0.66-0.19-1.32-0.36zm-47.04 2.01l1.26-0.06h0.01q0.12-0.04 0.22-0.07-0.75 0.05-1.49 0.13zm47.04-2.01l1.11 0.35q0.1 0.01 0.21 0.01-0.66-0.19-1.32-0.36zm-47.04 2.01l1.26-0.06h0.01q0.12-0.04 0.22-0.07-0.75 0.05-1.49 0.13zm47.04-2.01l1.11 0.35q0.1 0.01 0.21 0.01-0.66-0.19-1.32-0.36zm-47.04 2.01l1.26-0.06h0.01q0.12-0.04 0.22-0.07-0.75 0.05-1.49 0.13zm47.04-2.01l1.11 0.35q0.1 0.01 0.21 0.01-0.66-0.19-1.32-0.36zm-123.96 50.59v0.01q-0.6 0.56-1.18 1.16l1.06-0.98 2.22-2.03q-1.07 0.88-2.1 1.84zm-1.18 1.17l1.06-0.98q0.06-0.09 0.12-0.18-0.6 0.56-1.18 1.16zm0 0l1.06-0.98q0.06-0.09 0.12-0.18-0.6 0.56-1.18 1.16zm-21.59 41.58l0.59-1.16 0.01-0.01q0.02-0.12 0.06-0.25-0.35 0.69-0.66 1.42zm9.93-23.08q-0.51 0.7-1.02 1.43l0.91-1.18 1.84-2.42q-0.89 1.03-1.73 2.17zm11.66-18.5l1.06-0.98q0.06-0.09 0.12-0.18-0.6 0.56-1.18 1.16zm17.31-18.34q-0.68 0.45-1.33 0.92l1.16-0.74 2.41-1.55q-1.15 0.63-2.24 1.37zm-97.51 75.32l-0.35 0.84v0.01q0.26 0.33 0.48 0.66-0.06-0.77-0.13-1.51zm80.2-56.98l1.06-0.98q0.06-0.09 0.12-0.18-0.6 0.56-1.18 1.16zm-12.67 19.93l0.91-1.18q0.03-0.13 0.11-0.25-0.53 0.7-1.02 1.43zm12.67-19.93l1.06-0.98q0.06-0.09 0.12-0.18-0.6 0.56-1.18 1.16zm0 0l1.06-0.98q0.06-0.09 0.12-0.18-0.6 0.56-1.18 1.16zm-20.92 40.14q0 0.01 0 0.02-0.36 0.69-0.66 1.42l0.59-1.16 0.01-0.01 1.4-2.71q-0.71 1.18-1.34 2.44zm99.02-89.89l1.26-0.06h0.01q0.12-0.04 0.22-0.07-0.75 0.05-1.49 0.13zm-42 17.32q-0.78 0.33-1.53 0.71l1.32-0.55h0.01l2.71-1.13q-1.27 0.41-2.51 0.97zm90.36-18.96q-0.65-0.2-1.32-0.37l1.11 0.35 2.79 0.87q-1.28-0.47-2.58-0.85z"/>
				</g>
				<g>
					<path class="s12" d="m318.83 196.26c-6.75 23.12-36.06 28.14-44.08 29.51-19.51 3.33-35.36-2.8-42.25-5.96-10.28-5.9-14.91-10.82-21.53-15.81 5.32 3 10.51 6.11 19.12 9.23 7.32 1.92 24.01 5.21 42.65-1.48 7.65-2.74 35.65-12.76 38.27-36.71 0.61-5.54-0.4-10.86-2.61-15.95 8.92 11.97 14.04 24.78 10.43 37.17z"/>
					<path class="s13" d="m230.34 157.84c-6.86 18.57-20.1 29.24-26.29 33.62-2.68 1.56-5.1 2.81-7.37 3.86q-1.81-0.96-3.59-1.81 1.93-1.46 4.06-3.26c5.32-5.38 16.51-18.19 20.05-37.67 1.45-7.99 6.76-37.25-12.67-51.5-2.56-1.88-5.34-3.27-8.26-4.24h-0.01q-1.98-0.66-4.07-1.05l-0.07-0.01q-1.35-0.27-2.75-0.41c7.84-0.93 15.36-0.81 22.03 0.89l0.13 0.04 1.11 0.35 2.79 0.87h0.01l0.04 0.01q2.04 0.78 3.93 1.78h0.01c2.71 1.46 5.21 3.32 7.4 5.61 16.66 17.41 6.34 45.3 3.52 52.92z"/>
					<path class="s14" d="m203.37 149.68c-0.11 19.79-8.9 34.36-13.21 40.58q-0.58 0.68-1.11 1.31h-0.01q-2.47-1.13-4.86-2.14c3.27-7.68 8.09-22.43 5.05-40.2-1.37-8-6.39-37.32-29.51-44.06-3.06-0.89-6.13-1.25-9.21-1.15h-0.01q-2.17 0.07-4.36 0.42l-0.06 0.01q-1.27 0.21-2.55 0.52c7.02-3.54 14.09-5.98 20.9-6.68h0.06l1.26-0.06h0.01l3.01-0.13h0.17q2.07 0.03 4.08 0.32h0.01c3.07 0.44 6.04 1.33 8.91 2.74 21.62 10.67 21.46 40.4 21.43 48.52z"/>
					<path class="s15" d="m178.13 187.14q-3.67-1.2-7.45-1.9c-0.64-8.3-2.82-18.9-8.9-29.57-4.03-7.06-18.77-32.89-42.8-31.32-3.19 0.21-6.21 0.93-9.09 2.09q-1.93 0.77-3.77 1.79l-0.13 0.07-0.06 0.04q-1.14 0.62-2.23 1.37c5.35-5.68 11.11-10.39 17.22-13.37l0.04-0.01 1.32-0.55h0.01l2.71-1.13 0.07-0.04h0.01q2.02-0.71 4.1-1.15h0.01c3.03-0.64 6.13-0.83 9.3-0.47 23.95 2.62 33.97 30.62 36.71 38.27 5.1 14.17 4.41 27.22 2.93 35.88z"/>
					<path class="s16" d="m161.51 184.27q-5.48-0.13-10.88 0.74c-3.18-4.71-7.24-9.5-12.44-13.92-6.2-5.25-28.88-24.49-50.93-14.79-2.92 1.29-5.5 2.99-7.8 5.04l-0.01 0.01q-1.56 1.38-2.93 2.99l-0.04 0.04q-0.9 1.05-1.74 2.17c3.09-7.18 6.89-13.56 11.63-18.46l0.04-0.04 1.06-0.98 2.22-2.03 0.06-0.06q1.63-1.33 3.4-2.42l0.01-0.01c2.63-1.63 5.48-2.86 8.57-3.61 23.4-5.72 42.4 17.15 47.58 23.41 6.1 7.34 9.88 15.05 12.2 21.92z"/>
					<path class="s17" d="m138.32 188.41q-0.3 0.11-0.6 0.24c-4.33 1.77-8.84 3.81-13.48 6.19q-1.44-0.62-2.94-1.17c-7.61-2.82-35.52-13.14-52.92 3.52q-3.42 3.31-5.61 7.39v0.01q-1 1.87-1.76 3.87l-0.01 0.02-0.9 2.88q0.01-0.12 0.01-0.22c0.45-7.78 1.84-15.07 4.59-21.29l0.06-0.11 0.05-0.11 0.59-1.16 0.01-0.01 1.4-2.71 0.09-0.17q1.07-1.75 2.31-3.34v-0.01c1.91-2.42 4.17-4.54 6.8-6.3 20.03-13.39 45.72 1.62 52.73 5.71 3.58 2.07 6.76 4.37 9.58 6.77z"/>
					<path class="s18" d="m107.11 205.48c-5.69 4.49-10.35 9.01-19.62 14.33-4.96 2.28-14.53 6.09-26.79 6.81q1.39-3.8 3.85-7.16c10.82-14.77 30.32-15.24 42.56-13.98z"/>
					<path class="s19" d="m275.9 122.91c-4.9-4.73-11.27-8.53-18.44-11.63h-0.01q-0.7-0.51-1.43-1.02l-0.06-0.04-0.02-0.02-55.11-42.12c-15.77-11.04-20.64-15.1-29.96-18.92-17.84-6.1-33.46-4.04-41.44-2.3q-2.21 0.48-4.44 0.79c-2.75 0.38-6.34 1.02-10.46 2.16 0.89-0.64 1.81-1.25 2.8-1.88 16.5-9.1 32.25-9.77 40.42-9.45q2.25 0.09 4.51 0c8.16-0.32 23.9 0.35 40.4 9.45 8.51 5.39 12.62 10.25 26.23 23.86z"/>
					<path class="s20" d="m252.91 174.73c-12.81 15.1-28.9 20.6-36.2 22.59-5.38 0.96-9.7 1.31-13.61 1.45h-0.04q-0.19-0.1-0.4-0.22-1.35-0.76-2.68-1.49c3.15-0.76 6.62-1.75 10.66-3.23 6.85-3.22 21.74-11.44 31.73-28.53 4.1-7.01 19.1-32.7 5.71-52.73-1.76-2.63-3.88-4.89-6.3-6.8h-0.01q-1.59-1.26-3.34-2.31l-0.17-0.09q-1.2-0.72-2.47-1.35c7.58 1.78 14.51 4.41 20.15 8.19l0.02 0.02 0.06 0.04 1.18 0.91 2.28 1.72 0.14 0.12 0.04 0.04q1.6 1.38 2.99 2.93l0.01 0.01c2.05 2.3 3.75 4.89 5.04 7.8 9.7 22.06-9.54 44.73-14.79 50.93z"/>
					<path class="s21" d="m124.23 194.83q-3.41 1.74-6.91 3.72c-4.17 2.36-7.33 4.64-10.22 6.93-12.24-1.26-31.74-0.79-42.56 13.98q-2.46 3.37-3.85 7.16-0.2 0.01-0.44 0.02l-0.09-1.96v-0.04l-0.05-1.13c-0.21-4.13-0.24-8.2-0.01-12.16l0.9-2.88 0.01-0.02q0.76-2 1.76-3.87v-0.01q2.18-4.08 5.61-7.39c17.4-16.66 45.3-6.34 52.92-3.52q1.5 0.55 2.93 1.17z"/>
					<path class="s22" d="m150.63 185.01c-4.18 0.67-8.3 1.81-12.3 3.4h-0.01c-2.82-2.4-6-4.7-9.56-6.78-7.01-4.1-32.7-19.1-52.73-5.71q-3.94 2.65-6.8 6.3v0.01q-1.26 1.59-2.31 3.34l-0.09 0.17q-0.71 1.19-1.35 2.44c1.78-7.57 4.41-14.48 8.19-20.13l0.02-0.02 0.04-0.06 0.91-1.18 1.84-2.42 0.04-0.04q1.38-1.6 2.93-2.99l0.01-0.01c2.3-2.05 4.89-3.75 7.8-5.04 22.05-9.7 44.74 9.54 50.93 14.79 5.2 4.43 9.26 9.22 12.44 13.93z"/>
					<path class="s23" d="m170.68 185.23c-3.02-0.55-6.09-0.89-9.16-0.97h-0.01c-2.33-6.87-6.1-14.58-12.21-21.92-5.18-6.26-24.19-29.13-47.58-23.41q-4.63 1.15-8.57 3.61l-0.01 0.01q-1.77 1.09-3.4 2.42l-0.06 0.06q-1.08 0.87-2.1 1.84c4.31-6.54 9.17-12.17 14.68-16.18l0.08-0.06 0.02-0.01 1.16-0.74 2.41-1.55 0.06-0.04 0.13-0.07q1.84-1.03 3.77-1.79c2.88-1.16 5.9-1.88 9.09-2.09 24.03-1.57 38.78 24.26 42.8 31.32 6.08 10.68 8.27 21.28 8.9 29.57z"/>
					<path class="s24" d="m184.17 189.44q-0.96-0.4-1.9-0.79-2.06-0.83-4.14-1.51c1.48-8.65 2.17-21.71-2.92-35.88-2.74-7.65-12.76-35.65-36.71-38.27-3.18-0.35-6.27-0.17-9.3 0.47h-0.01q-2.07 0.43-4.1 1.15h-0.01l-0.07 0.04q-1.28 0.42-2.51 0.98c6.3-4.7 12.83-8.35 19.42-10.22l0.09-0.02 1.3-0.28h0.01l2.76-0.63 0.06-0.01q2.17-0.37 4.36-0.42h0.01q4.62-0.17 9.21 1.15c23.12 6.74 28.14 36.06 29.51 44.06 3.03 17.75-1.79 32.49-5.06 40.18z"/>
					<path class="s25" d="m217.21 152.59c-3.54 19.48-14.73 32.28-20.05 37.67q-2.13 1.79-4.06 3.26c-1.37-0.68-2.7-1.32-4.05-1.94q0.53-0.63 1.11-1.31c4.31-6.22 13.1-20.79 13.21-40.58 0.04-8.12 0.19-37.85-21.41-48.51q-4.31-2.09-8.91-2.74h-0.01q-2.02-0.29-4.08-0.32h-0.17q-1.38-0.03-2.79 0.06c7.51-2.24 14.86-3.43 21.67-2.96l0.09 0.01 1.39 0.18 2.97 0.39 0.07 0.01q2.09 0.39 4.07 1.05h0.01c2.93 0.97 5.7 2.36 8.26 4.24 19.45 14.23 14.14 43.49 12.68 51.49z"/>
					<path class="s26" d="m242.37 165.3c-9.99 17.09-24.88 25.31-31.73 28.53-4.04 1.49-7.51 2.48-10.66 3.23q-1.67-0.91-3.29-1.75c2.27-1.05 4.69-2.3 7.37-3.86 6.19-4.38 19.43-15.05 26.29-33.62 2.82-7.61 13.14-35.51-3.52-52.92-2.2-2.29-4.69-4.14-7.4-5.61h-0.01q-1.89-1-3.93-1.78l-0.04-0.01h-0.01q-1.26-0.48-2.57-0.86c7.84 0.45 15.17 1.85 21.41 4.65l0.11 0.05 1.16 0.59 0.01 0.01 2.71 1.4 0.17 0.09q1.75 1.06 3.34 2.31h0.01c2.42 1.91 4.54 4.17 6.3 6.8 13.38 20.05-1.63 45.74-5.72 52.75z"/>
					<path class="s27" d="m234.27 101.31c-6.24-2.8-13.57-4.2-21.41-4.65q-0.65-0.2-1.32-0.37l-0.13-0.04-66.47-20.81c-18.59-4.98-24.56-7.13-34.63-7.54-6.54 0.13-12.5 1.1-17.78 2.48 4.85-4.87 8.45-8.57 11.5-11.57 8.31-2.69 20.88-5.25 35.74-2.93 9.84 2.16 15.34 5.31 32.79 13.44z"/>
					<path class="s28" d="m187.67 95.21c-6.81-0.47-14.16 0.72-21.67 2.96q-0.76 0.05-1.5 0.13h-0.06l-69.51 3.18c-19.17 1.68-25.52 1.7-35.12 4.76q-0.3 0.11-0.59 0.24l18.69-20.31q2.64-0.73 5.48-1.29c9.99-1.35 16.24-0.27 35.41 1.4z"/>
					<path class="s29" d="m141.92 105.39c-6.59 1.88-13.11 5.52-19.42 10.22q-0.78 0.33-1.53 0.71l-0.04 0.01-64.09 26.7c-17.45 8.13-23.4 10.33-31.37 16.48q-0.26 0.21-0.48 0.42v0.01q-1.9 1.68-3.61 3.41v0.01c-3.03 3.07-5.62 6.21-7.83 9.3l-0.11 0.15v0.01c-1.51 2.12-2.83 4.23-3.99 6.26l-0.07 0.12-0.05 0.07-1.12 1.74q-1.9 2.94-3.6 5.91-2.15 3.74-3.9 7.52-0.72-3.25-0.71-6.52v-0.01c1.26-4.93 2.89-9.28 4.58-12.97v-0.01c1.77-3.9 3.59-7.06 5.08-9.4q1.2-1.9 2.25-3.91c0.77-1.46 1.72-3.18 2.9-5.05v-0.01c1.66-2.66 3.75-5.64 6.35-8.75l0.02-0.04 0.09-0.11 0.04-0.04q2.12-2.55 4.75-5.15l0.02-0.04 0.05-0.05h0.01v-0.01l0.12-0.12c2.7-2.67 5.81-5.32 9.32-7.81q1.98-1.44 4.15-2.76l0.01-0.01q0.28-0.17 0.54-0.33c8.92-4.67 15.18-5.81 33.76-10.79z"/>
					<path class="s11" d="m125.01 114.64l-2.71 1.13h-0.01l-1.32 0.55q0.77-0.37 1.53-0.71 1.24-0.55 2.51-0.97z"/>
					<path class="s30" d="m102.27 130.7c-5.51 4.01-10.38 9.64-14.68 16.18v0.01q-0.6 0.56-1.18 1.16l-0.04 0.04-51.11 47.03c-10.01 10.01-15.27 14.87-19.51 20.14h-0.01q-2.17-1.45-4.18-3.18-0.46-0.39-0.91-0.8-2.34-2.15-4.31-4.72l-0.01-0.01q-0.06-0.78-0.13-1.51l0.07-0.15c1.63-3.43 3.64-6.99 6.1-10.55q1.37-2.02 2.97-4.03 0.18-0.25 0.38-0.48c6.8-7.45 12.28-10.65 28.05-21.68z"/>
					<path class="s31" d="m73.67 168.06c-3.78 5.64-6.41 12.56-8.19 20.13q0 0.01 0 0.02-0.36 0.69-0.66 1.42l-0.05 0.11-0.06 0.11-18.69 36.05q-0.39-0.06-0.79-0.13c-2.64-0.45-7.6-1.3-13.31-3.07z"/>
					<path class="s32" d="m60.26 226.64q-0.16 0-0.34 0.01-0.82 0.05-1.65 0.06-1.46 0.03-2.97 0.01l4.41-14.07v-0.01l0.4-1.29c-0.22 3.95-0.2 8.03 0.01 12.16l0.05 1.13v0.04z"/>
					<path class="s33" d="m64.71 189.84c-2.75 6.22-4.14 13.52-4.59 21.29q0 0.1-0.01 0.22l-0.4 1.29v0.01l-4.41 14.07q-4.45-0.08-9.27-0.83z"/>
					<path class="s11" d="m66.82 185.74l-1.4 2.71-0.01 0.01-0.59 1.16q0.3-0.72 0.66-1.42 0-0.01 0-0.02 0.63-1.25 1.34-2.44z"/>
					<path class="s34" d="m86.37 148.09c-4.73 4.9-8.53 11.28-11.63 18.46q-0.51 0.7-1.02 1.43l-0.04 0.06-0.02 0.02-41.74 54.64c-5.18-1.61-10.95-3.95-16.17-7.45 4.24-5.26 9.5-10.13 19.51-20.14z"/>
					<path class="s11" d="m76.48 164.38l-1.84 2.42-0.91 1.18q0.49-0.72 1.02-1.43 0.83-1.14 1.73-2.17z"/>
					<path class="s11" d="m89.69 145.04l-2.22 2.03-1.06 0.98q0.58-0.6 1.18-1.16v-0.01q1.02-0.96 2.1-1.84z"/>
					<path class="s35" d="m120.93 116.34c-6.11 2.99-11.87 7.7-17.22 13.37q-0.68 0.45-1.33 0.92l-0.02 0.01-0.08 0.06-58.5 37.43c-15.78 11.04-21.26 14.24-28.06 21.68q-0.2 0.25-0.38 0.48-1.6 2-2.97 4.03c-2.47 3.56-4.47 7.12-6.1 10.55l-0.07 0.15-0.35 0.84q-0.02-0.01-0.02-0.04c-1.75-2.44-3.2-5.18-4.24-8.26q-0.21-0.63-0.41-1.31-0.27-0.9-0.46-1.81 1.75-3.77 3.9-7.52 1.7-2.97 3.6-5.91l1.12-1.74 0.05-0.07 0.07-0.12 3.98-6.22 0.01-0.01v-0.04l0.11-0.15c2.21-3.09 4.79-6.23 7.83-9.3v-0.01q1.71-1.73 3.61-3.41v-0.01q0.23-0.21 0.48-0.42c7.98-6.15 13.93-8.35 31.37-16.48z"/>
					<path class="s11" d="m105.94 128.34l-2.41 1.55-1.16 0.74q0.67-0.48 1.33-0.92 1.11-0.74 2.24-1.37z"/>
					<path class="s0" d="m164.44 98.3c-6.81 0.7-13.88 3.14-20.9 6.68q-0.77 0.18-1.52 0.39l-0.09 0.02-67.86 15.19c-18.58 4.98-24.84 6.11-33.76 10.79q-0.28 0.16-0.54 0.33l-0.01 0.01q-2.17 1.33-4.15 2.76c-3.52 2.49-6.62 5.15-9.32 7.81l11.1-12.06 11-11.96 10.86-11.8q0.29-0.13 0.59-0.24c9.6-3.06 15.95-3.08 35.12-4.76z"/>
					<path class="s0" d="m21.16 147.83c-2.6 3.1-4.69 6.09-6.35 8.75v0.01c-1.18 1.88-2.14 3.59-2.9 5.05q-1.06 1.99-2.25 3.91c-1.49 2.34-3.31 5.5-5.08 9.4v0.01c-1.69 3.69-3.32 8.04-4.58 12.97 0.02-6.6 2.15-13.23 5.7-19.72q0-0.01 0.01-0.04c2.49-4.57 5.67-9.07 9.29-13.42q2.19-2.63 4.57-5.18z"/>
					<path class="s11" d="m6.33 206.54q-0.23-0.33-0.48-0.66v-0.01l0.35-0.84q0.07 0.74 0.13 1.51z"/>
					<path class="s11" d="m13.43 172.84v0.02l-0.01 0.01-3.98 6.22q1.73-3.04 3.99-6.25z"/>
					<path class="s11" d="m146.08 104.46l-2.76 0.63h-0.01l-1.3 0.28q0.77-0.21 1.52-0.39 1.27-0.31 2.55-0.52z"/>
					<path class="s11" d="m168.78 98.11l-3.01 0.13h-0.01l-1.26 0.06q0.74-0.08 1.5-0.13 1.4-0.09 2.78-0.06z"/>
					<path class="s36" d="m211.41 96.26c-6.67-1.7-14.19-1.82-22.03-0.89q-0.79-0.1-1.62-0.15l-0.09-0.01-68.87-8.94c-19.17-1.68-25.43-2.75-35.41-1.4q-2.84 0.55-5.48 1.29l13.2-14.36q0.72-0.73 1.42-1.42c5.28-1.38 11.24-2.35 17.78-2.48 10.07 0.41 16.04 2.56 34.63 7.54z"/>
					<path class="s11" d="m192.13 95.79l-2.97-0.39-1.39-0.18q0.82 0.05 1.62 0.15 1.39 0.15 2.74 0.42z"/>
					<path class="s11" d="m215.43 97.52l-2.79-0.87-1.11-0.35q0.67 0.17 1.32 0.37 1.32 0.37 2.58 0.85z"/>
					<path class="s37" d="m255.94 110.21c-5.64-3.78-12.57-6.41-20.15-8.19q-0.69-0.36-1.42-0.66l-0.11-0.05-61.71-31.98c-17.45-8.13-22.95-11.28-32.79-13.44-14.86-2.33-27.43 0.24-35.74 2.93 3.86-3.78 6.87-6.46 10.51-8.99 4.12-1.14 7.71-1.78 10.46-2.16q2.23-0.31 4.44-0.79c7.98-1.74 23.61-3.8 41.44 2.3 9.31 3.82 14.19 7.88 29.96 18.92z"/>
					<path class="s11" d="m238.26 103.36l-2.71-1.4-0.01-0.01-1.16-0.59q0.72 0.3 1.42 0.66 1.26 0.62 2.46 1.34z"/>
					<path class="s38" d="m261.65 185.85c-15.23 12.65-32.04 15.27-39.58 15.97-6.67 0.01-11.63-0.6-16.15-1.31-0.91-0.58-1.82-1.14-2.83-1.74 3.91-0.14 8.23-0.5 13.61-1.45 7.31-1.99 23.4-7.5 36.2-22.59 5.25-6.2 24.49-28.87 14.79-50.93-1.29-2.92-2.99-5.5-5.04-7.8l-0.01-0.01q-1.38-1.56-2.99-2.93l-0.04-0.04-0.14-0.12q-0.97-0.83-2.02-1.62c7.16 3.09 13.54 6.89 18.44 11.63q0.62 0.59 1.2 1.22 1.01 1.05 1.91 2.16l0.06 0.07q1.28 1.59 2.35 3.33c1.64 2.63 2.88 5.49 3.64 8.58 5.74 23.39-17.15 42.4-23.4 47.58z"/>
					<path class="s11" d="m259.48 112.9l-2.28-1.72-1.18-0.91q0.72 0.5 1.43 1.02h0.01q1.05 0.77 2.02 1.61z"/>
					<path class="s39" d="m268.34 198.33c-17.2 9.81-34.2 9.47-41.74 8.84-7.77-1.35-13.04-3.15-18.02-4.9q0 0-0.01-0.01-1.25-0.87-2.63-1.75c4.52 0.71 9.48 1.32 16.15 1.31 7.54-0.7 24.35-3.32 39.58-15.97 6.24-5.18 29.13-24.19 23.41-47.58q-1.15-4.63-3.64-8.58-1.07-1.74-2.35-3.33l4.73 5.16 13.77 14.97c1.15 2.87 1.87 5.88 2.07 9.04 1.56 24.03-24.27 38.77-31.32 42.8z"/>
					<path class="s40" d="m311.02 175.05c-2.62 23.95-30.62 33.97-38.27 36.71-18.64 6.68-35.33 3.4-42.65 1.48-8.62-3.12-13.8-6.23-19.12-9.23q-1.15-0.87-2.41-1.74c4.98 1.75 10.26 3.55 18.02 4.9 7.54 0.63 24.54 0.97 41.74-8.84 7.06-4.03 32.89-18.77 31.32-42.8-0.2-3.16-0.92-6.17-2.07-9.04l2.83 3.08c2.88 3.1 5.58 6.29 7.99 9.54 2.22 5.08 3.23 10.4 2.62 15.94z"/>
				</g>
			</g>
			<path id="COreSync" class="s41" aria-label="COreSync"  d="m369.3 206.7v-24.6q0-27 13.8-43.2 13.8-16.2 39.4-16.2 25.5 0 39.2 16.2 13.8 16.2 13.8 43.2v13.4q0 1-0.7 1.7-0.6 0.7-1.6 0.7h-12.4q-1 0-1.7-0.7-0.6-0.7-0.6-1.7v-13.4q0-19-9.4-30.6-9.2-11.7-26.6-11.7-17.4 0-26.8 11.7-9.2 11.6-9.2 30.6v22.1q0 4.8 2.9 7.8 3 2.8 7.8 2.8h76.4q1 0 1.7 0.8 0.7 0.7 0.7 1.6v12.4q0 1-0.7 1.7-0.7 0.7-1.7 0.7h-79.1q-11.4 0-18.3-7-6.9-6.9-6.9-18.3zm213.2 12.8q-14.1 14.4-41.5 14.4-27.4 0-41.5-14.4-14.2-14.4-14.2-40.7 0-26.4 14.3-41.2 14.4-14.9 41.4-14.9 27 0 41.3 14.9 14.4 14.8 14.4 41.2 0 26.3-14.2 40.7zm-79.2-40.7q0 17.9 9.4 28 9.3 10 28.3 10 18.8 0 28.2-10 9.5-10.1 9.5-28 0-18.3-9.6-28.6-9.6-10.4-28.1-10.4-18.5 0-28.1 10.4-9.6 10.3-9.6 28.6zm127.6-54h26.4q1 0 1.6 0.8 0.7 0.7 0.7 1.6v12.4q0 1-0.7 1.7-0.6 0.7-1.6 0.7h-24q-4.8 0-7.8 3-3 2.9-3 7.7v76.9q0 1-0.7 1.7-0.6 0.7-1.6 0.7h-12.4q-1 0-1.7-0.7-0.6-0.7-0.6-1.7v-79.2q0-11.4 6.9-18.5 7.1-7.1 18.5-7.1zm26.4 81.9v-24.6q0-27 13.8-43.2 13.8-16.2 39.4-16.2 25.3 0 39.1 15.8 13.9 15.9 13.9 42.3v14.7q0 1-0.7 1.7-0.6 0.7-1.6 0.7h-86.1q-0.4 0-0.6-0.1v6.4q0 4.8 2.9 7.8 3 2.8 7.8 2.8h76.4q1 0 1.7 0.8 0.7 0.7 0.7 1.6v12.4q0 1-0.7 1.7-0.7 0.7-1.7 0.7h-79.1q-11.4 0-18.3-7-6.9-6.9-6.9-18.3zm17.2-25.8q0.2-0.1 0.6-0.1h71.4q-0.4-18.4-9.7-29.7-9.3-11.3-26.3-11.3-17.2 0-26.5 11.4-9.3 11.3-9.5 29.7zm116.4-24.1h89.8q0.9 0 1.7 0.7 0.7 0.7 0.7 1.7v13.4q0 28.2-14.7 45-14.6 16.8-40.4 16.8-11.5 0-21.2-3.1-9.6-3.1-15.9-8.1-6.2-5-10.5-11.4-4.4-6.3-6.3-12.4-1.8-6.3-1.8-12.2 0-0.9 0.6-1.6 0.7-0.8 1.7-0.8h12.5q0.9 0 1.7 0.8 0.7 0.6 0.7 1.4 0 12.7 10.5 21.5 10.7 8.7 28 8.7 17.9 0 27.8-11.6 10.1-11.6 10.1-31.7h-91.3q-1 0-1.7-0.7-0.6-0.7-0.6-1.7v-21.3q0-11.4 6.9-18.4 6.9-7 18.3-7h83.2q0.9 0 1.7 0.8 0.7 0.7 0.7 1.6v12.4q0 1-0.7 1.7-0.8 0.7-1.7 0.7h-80.5q-4.8 0-7.8 3-2.9 2.9-2.9 7.7v2.6q0 1.5 1.4 1.5zm100.8-15v-14.6q0-0.9 0.7-1.6 0.7-0.8 1.7-0.8h12.5q0.9 0 1.5 0.8 0.7 0.7 0.7 1.6v14.6q0 18.7 9.3 30 9.2 11.1 26.7 11.1 19 0 29.8-10.9 10.8-10.9 10.8-30v-15q0-1 0.6-1.7 0.7-0.7 1.7-0.7h12.5q0.9 0 1.6 0.7 0.8 0.7 0.8 1.7v79.4q0 11.6-7.2 18.6-7.2 7-18.4 7h-83.4q-1 0-1.7-0.7-0.6-0.7-0.6-1.7v-12.4q0-0.9 0.6-1.6 0.7-0.8 1.7-0.8h81q4.8 0 7.8-2.8 3-3 3-7.8v-20.4q-9.8 16.3-40.6 16.3-25 0-39.1-15.9-14-15.8-14-42.4zm125.8 87.8v-102.4q0-0.9 0.6-1.6 0.7-0.8 1.7-0.8h12.4q1 0 1.6 0.8 0.7 0.7 0.7 1.6v13.5q4-6.6 14.9-12.4 11-5.9 25.7-5.9 25.4 0 39.2 16.7 13.9 16.6 13.9 43.6v47.1q0 2.2-2.4 2.2h-12.3q-2.4 0-2.4-2.2v-47.1q0-19.1-9.4-31.1-9.2-12-26.6-12-18.1 0-29.4 11.4-11.2 11.4-11.2 31.4v47.2q0 1-0.7 1.7-0.6 0.7-1.6 0.7h-12.4q-1 0-1.7-0.7-0.6-0.7-0.6-1.7zm119.8-22.9v-24.6q0-27 13.8-43.2 13.8-16.2 39.4-16.2 25.5 0 39.2 16.2 13.8 16.2 13.8 43.2v13.4q0 1-0.7 1.7-0.6 0.7-1.6 0.7h-12.4q-1 0-1.7-0.7-0.6-0.7-0.6-1.7v-13.4q0-19-9.4-30.6-9.2-11.7-26.6-11.7-17.4 0-26.8 11.7-9.2 11.6-9.2 30.6v22.1q0 4.8 2.9 7.8 3 2.8 7.8 2.8h76.4q1 0 1.7 0.8 0.7 0.7 0.7 1.6v12.4q0 1-0.7 1.7-0.7 0.7-1.7 0.7h-79.1q-11.4 0-18.3-7-6.9-6.9-6.9-18.3z"/>
		</g>
		<g id="Dossier 1">
			<path id="Forme 1" fill-rule="evenodd" class="s41" d="m1320 120h272.1c33.14 0 60 26.86 60 60 0 33.14-26.86 60-60 60h-272.1c-33.14 0-60-26.86-60-60 0-33.14 26.86-60 60-60z"/>
			<path id="Docs" class="s42" aria-label="Docs"  d="m1316.6 208.5v-22.7q0-16 8.2-25.7 8.2-9.6 23.5-9.6 8.7 0 15.2 3.3 6.5 3.2 8.9 7v-13.4q0-0.6 0.4-1 0.5-0.4 1-0.4h7.4q0.6 0 1 0.4 0.4 0.4 0.4 1v61.1q0 0.6-0.4 1-0.4 0.4-1 0.4h-7.4q-0.1 0-0.3-0.1-0.2 0.1-0.3 0.1h-55.3q-0.5 0-0.9-0.5-0.4-0.4-0.4-0.9zm10.2-22.7v13.8h45.6v-13.9q0-11.8-6.7-18.4-6.5-6.6-17.4-6.6-10.4 0-16 6.9-5.5 7-5.5 18.2zm119.7 16.8q-8.4 8.5-24.7 8.5-16.3 0-24.8-8.5-8.4-8.6-8.4-24.3 0-15.7 8.5-24.6 8.6-8.9 24.7-8.9 16.1 0 24.6 8.9 8.6 8.9 8.6 24.6 0 15.7-8.5 24.3zm-47.2-24.3q0 10.7 5.6 16.7 5.6 5.9 16.9 5.9 11.2 0 16.8-5.9 5.7-6 5.7-16.7 0-11-5.8-17.1-5.7-6.2-16.7-6.2-11 0-16.8 6.2-5.7 6.1-5.7 17.1zm61.3 16.6v-14.7q0-16.1 8.2-25.7 8.2-9.7 23.5-9.7 15.2 0 23.4 9.7 8.2 9.6 8.2 25.7v8q0 0.6-0.4 1-0.4 0.5-0.9 0.5h-7.5q-0.6 0-1-0.5-0.4-0.4-0.4-1v-8q0-11.3-5.5-18.2-5.5-7-15.9-7-10.4 0-16 7-5.5 6.9-5.5 18.2v13.2q0 2.9 1.7 4.6 1.8 1.8 4.7 1.8h45.6q0.5 0 1 0.4 0.4 0.4 0.4 1v7.4q0 0.5-0.4 1-0.5 0.4-1 0.4h-47.2q-6.8 0-10.9-4.2-4.1-4.1-4.1-10.9zm80.1-29.8h53.5q0.6 0 1 0.5 0.4 0.4 0.4 1v8q0 16.8-8.7 26.8-8.7 10-24.1 10-6.9 0-12.7-1.8-5.7-1.9-9.4-4.8-3.8-3-6.3-6.8-2.6-3.8-3.8-7.5-1-3.7-1-7.2 0-0.6 0.3-1 0.5-0.4 1-0.4h7.5q0.6 0 1 0.4 0.4 0.4 0.4 0.9 0 7.5 6.3 12.8 6.4 5.2 16.7 5.2 10.6 0 16.6-6.9 6-7 6-18.9h-54.5q-0.5 0-1-0.5-0.3-0.4-0.3-1v-12.7q0-6.8 4.1-11 4.1-4.1 10.9-4.1h49.6q0.6 0 1 0.4 0.4 0.5 0.4 1v7.4q0 0.6-0.4 1-0.4 0.4-1 0.4h-48q-2.9 0-4.7 1.8-1.7 1.7-1.7 4.6v1.6q0 0.8 0.9 0.8z"/>
		</g>
	</g>
</svg>